# xmcd
#
# Track frame offsets: 
#        150
#        17291
#        32729
#        49775
#        71444
#        91393
#        109729
#        125556
#        146919
#        161926
#
# Disc length: 2393 seconds
#
# Revision: 31
# Processed by: cddbd v1.5.2PL0 Copyright (c) Steve Scherf et al.
# Submitted via: ExactAudioCopy v1.0b1
#
DISCID=8709570a
DTITLE=ZZ Top - Recycler (VinylRip)
DYEAR=1990
DGENRE=Rock
TTITLE0=Concrete And Steel
TTITLE1=Lovething
TTITLE2=Penthouse Eyes
TTITLE3=Tell It
TTITLE4=My Head's In Mississippi
TTITLE5=Decision Or Collision
TTITLE6=Give It Up
TTITLE7=2000 Blues
TTITLE8=Burger Man
TTITLE9=Doubleback
EXTD=
EXTT0=
EXTT1=
EXTT2=
EXTT3=
EXTT4=
EXTT5=
EXTT6=
EXTT7=
EXTT8=
EXTT9=
PLAYORDER=
